<?xml version="1.0" standalone="no"?>
<!DOCTYPE svg PUBLIC "-//W3C//DTD SVG 20010904//EN"
 "http://www.w3.org/TR/2001/REC-SVG-20010904/DTD/svg10.dtd">
<svg version="1.0" xmlns="http://www.w3.org/2000/svg"
 width="377.000000pt" height="272.000000pt" viewBox="0 0 377.000000 272.000000"
 preserveAspectRatio="xMidYMid meet">
<metadata>
Created by potrace 1.16, written by Peter Selinger 2001-2019
</metadata>
<g transform="translate(0.000000,272.000000) scale(0.100000,-0.100000)"
fill="#000000" stroke="none">
<path d="M2267 2363 c-9 -2 -14 -9 -11 -15 4 -7 2 -8 -5 -4 -15 10 -43 -13
-34 -28 3 -6 2 -8 -2 -3 -13 11 -54 -33 -48 -51 4 -10 2 -13 -5 -8 -7 4 -12 2
-12 -3 0 -17 -80 -13 -186 10 -118 26 -372 32 -441 11 -62 -19 -134 -71 -169
-123 -35 -53 -65 -170 -46 -177 7 -2 12 -18 12 -35 0 -24 -3 -28 -10 -17 -7
11 -10 8 -10 -16 0 -40 29 -126 41 -118 5 3 6 -2 3 -11 -8 -19 43 -88 58 -79
6 4 8 3 5 -3 -9 -14 19 -37 34 -27 8 4 9 3 5 -5 -5 -7 13 -21 51 -38 50 -24
71 -27 154 -28 80 0 103 4 147 24 29 14 52 31 52 38 0 8 5 11 11 8 5 -4 19 1
30 11 21 18 26 40 7 28 -7 -4 -8 -3 -4 5 4 6 12 9 17 6 5 -4 12 2 16 12 4 10
12 24 19 30 20 20 37 114 23 127 -9 8 -10 7 -4 -4 8 -13 7 -13 -9 -1 -15 13
-19 13 -27 0 -5 -8 -9 -24 -9 -37 0 -13 -5 -33 -11 -44 -8 -15 -8 -18 0 -14 7
5 9 1 5 -8 -3 -9 -10 -13 -15 -10 -5 3 -7 -1 -4 -8 6 -17 -8 -39 -27 -42 -21
-3 -49 -32 -40 -41 4 -5 2 -5 -5 -1 -7 4 -25 -1 -40 -11 -21 -14 -47 -18 -118
-18 -100 1 -155 7 -149 16 6 10 -26 20 -38 12 -6 -3 -8 -2 -5 4 7 11 -30 46
-42 38 -5 -2 -8 3 -7 13 0 9 -5 16 -12 14 -8 -1 -11 2 -7 7 3 6 -3 19 -15 31
-11 11 -20 29 -20 40 0 11 -4 20 -8 20 -5 0 -8 37 -8 83 1 103 29 168 85 196
82 42 207 52 326 25 85 -19 83 -18 120 -33 100 -41 157 -55 245 -59 120 -5
169 8 225 59 49 45 66 86 68 156 0 40 -4 50 -32 75 -31 27 -72 35 -124 21z"/>
<path d="M1996 2032 c-2 -4 -2 -27 1 -51 3 -23 9 -38 12 -33 10 17 2 -369 -10
-448 -6 -41 -20 -95 -32 -120 -11 -25 -21 -49 -21 -55 -1 -18 -48 -56 -62 -51
-8 3 -13 0 -11 -6 1 -7 -13 -13 -35 -14 -20 -1 -44 -4 -52 -7 -8 -3 -18 -2
-21 3 -3 5 -14 7 -25 5 -11 -2 -20 0 -20 4 0 5 -11 6 -23 4 -14 -3 -31 2 -39
11 -9 8 -18 13 -21 10 -3 -4 -16 1 -29 10 -12 9 -18 16 -13 16 6 0 -3 8 -18
19 -15 10 -35 28 -43 40 -17 23 -39 27 -50 9 -5 -7 -3 -8 6 -3 9 5 11 2 6 -11
-3 -11 3 -29 14 -41 19 -24 37 -32 24 -11 -4 7 -3 8 5 4 6 -4 9 -11 6 -16 -8
-13 45 -47 113 -69 66 -22 127 -27 137 -11 3 6 12 10 18 10 7 0 6 -4 -3 -11
-11 -8 0 -9 42 -5 64 7 154 39 151 54 -1 5 5 9 15 8 9 0 16 5 14 12 -1 8 2 11
7 8 13 -9 90 79 112 128 31 71 49 180 49 299 0 168 -35 262 -112 303 -29 15
-84 19 -92 6z"/>
<path d="M1952 933 c-6 -2 -10 -8 -7 -13 3 -4 -4 -6 -15 -3 -11 3 -20 0 -20
-5 0 -6 -10 -16 -21 -23 -15 -7 -19 -8 -15 0 5 7 1 9 -8 5 -9 -3 -13 -10 -10
-15 3 -5 -2 -6 -10 -3 -9 4 -18 -1 -22 -10 -3 -9 -12 -16 -20 -16 -8 0 -14 -4
-14 -10 0 -5 -6 -10 -12 -10 -16 -1 -68 -46 -68 -59 0 -6 -11 -18 -25 -27 -14
-9 -25 -21 -25 -26 0 -5 -10 -24 -22 -41 -13 -18 -23 -35 -23 -39 0 -3 -3 -10
-7 -14 -14 -13 -8 -52 10 -70 9 -10 17 -22 17 -28 0 -6 9 -10 19 -8 10 2 16 0
13 -5 -7 -12 72 -14 93 -3 13 7 20 6 23 -3 3 -8 10 -7 25 7 12 10 19 23 15 29
-3 6 -1 7 5 3 7 -4 12 -1 12 8 0 8 5 18 12 22 8 5 9 1 5 -12 -5 -12 2 -8 17
10 14 17 23 33 20 37 -2 4 2 11 9 16 23 13 38 51 31 78 -8 34 -29 32 -44 -4
-15 -37 -110 -136 -138 -146 -12 -3 -22 -11 -22 -16 0 -24 -28 -5 -37 25 -8
26 -7 43 7 78 10 25 23 52 29 59 47 54 92 102 86 90 -5 -9 1 -7 19 4 25 17 38
34 14 19 -7 -4 -8 -3 -4 4 4 6 14 8 23 5 12 -5 14 -3 8 7 -6 9 -4 11 4 5 8 -4
24 1 40 12 34 26 113 38 142 23 21 -12 22 -20 5 -90 -8 -34 -59 -102 -86 -116
-12 -7 -17 -13 -10 -16 7 -2 3 -11 -11 -23 -13 -12 -19 -14 -14 -5 8 13 7 13
-9 1 -11 -9 -13 -17 -6 -21 7 -4 3 -13 -10 -25 -21 -19 -72 -100 -78 -125 -15
-57 21 -106 80 -108 21 -1 44 5 52 13 8 8 18 15 23 15 8 0 15 6 122 115 36 36
68 65 72 65 4 0 2 -18 -3 -40 -6 -22 -7 -52 -3 -67 5 -16 7 -32 6 -36 -1 -5 3
-6 9 -2 5 3 10 1 10 -4 0 -6 7 -11 15 -11 8 0 15 -4 15 -10 0 -16 30 -12 36 5
4 8 10 12 15 9 5 -3 9 -1 9 5 0 5 -12 14 -27 19 -16 6 -21 11 -11 11 14 1 15
5 5 30 -6 16 -7 36 -2 47 4 10 7 23 6 27 -1 5 4 5 10 1 9 -5 10 -2 6 10 -4 9
-3 15 2 12 5 -3 12 1 15 10 3 8 2 12 -4 9 -22 -13 14 46 37 60 12 9 23 21 23
27 0 7 -7 3 -15 -8 -13 -16 -14 -16 -9 -1 4 10 15 22 25 28 11 5 19 15 18 22
-1 7 5 28 14 48 19 42 13 76 -14 84 -22 7 -42 -2 -34 -16 4 -5 1 -9 -4 -9 -6
0 -10 -4 -8 -8 4 -16 -47 -104 -75 -127 -15 -13 -28 -27 -28 -32 0 -12 -160
-169 -160 -158 -1 6 -17 -8 -37 -30 -20 -22 -30 -31 -22 -21 13 18 13 18 -8 5
-12 -7 -20 -15 -18 -18 7 -6 -28 -30 -45 -31 -11 0 -15 10 -14 36 2 37 83 171
111 181 7 3 11 8 9 12 -3 4 10 23 27 43 47 51 89 138 85 172 -4 41 -55 89 -98
92 -19 2 -48 5 -65 8 -16 2 -36 2 -43 -1z"/>
<path d="M1133 923 c3 -4 -34 -7 -81 -6 -65 1 -77 -1 -47 -6 29 -6 33 -9 15
-10 -75 -5 -231 -21 -256 -25 -19 -4 -15 -1 11 8 55 20 25 19 -42 0 -39 -11
-52 -19 -42 -25 10 -6 7 -9 -11 -10 -48 -3 -90 -16 -90 -28 0 -5 -14 -14 -31
-21 -17 -7 -45 -32 -63 -56 -29 -38 -33 -51 -35 -109 -1 -53 2 -70 17 -83 10
-9 11 -13 2 -7 -13 8 -13 7 -2 -5 7 -8 17 -16 22 -16 6 -1 15 -2 21 -3 5 0 8
-4 6 -8 -3 -5 27 -7 65 -6 68 1 123 18 113 33 -3 5 12 23 33 41 20 18 37 38
37 43 1 6 7 10 14 8 8 -2 11 3 8 13 -4 8 -2 15 3 15 19 0 14 -35 -8 -58 -15
-14 -22 -30 -19 -43 3 -10 1 -19 -4 -19 -5 0 -8 -3 -7 -7 0 -5 -6 -25 -15 -45
-10 -22 -15 -50 -12 -70 4 -26 3 -29 -4 -13 -8 17 -10 15 -10 -14 -1 -19 2
-32 5 -28 4 3 13 -1 21 -9 20 -20 33 -9 33 29 0 25 3 28 10 17 7 -11 8 -5 3
19 -4 23 -3 32 5 27 13 -8 26 29 16 45 -4 8 -3 9 4 5 7 -4 13 -1 14 6 2 25 4
33 12 57 6 18 10 21 17 10 7 -12 9 -11 10 1 1 8 1 19 0 24 -1 5 9 21 22 35 12
14 36 45 51 69 16 23 32 42 36 42 4 0 15 12 25 26 15 24 15 27 -1 52 -12 19
-13 23 -3 15 10 -8 20 -9 29 -3 13 9 13 10 0 12 -8 1 26 4 75 7 l90 6 0 35 c0
32 -2 35 -34 38 -18 2 -31 0 -28 -5z m-348 -89 c-31 -8 -37 -11 -15 -8 19 3
65 8 103 11 68 6 83 -2 52 -27 -8 -7 -15 -16 -15 -21 0 -11 -48 -86 -72 -113
-20 -22 -41 -12 -33 15 4 11 2 19 -6 19 -15 0 -81 -69 -74 -79 2 -5 -5 -17
-18 -27 -21 -19 -21 -19 -7 1 10 13 5 11 -17 -7 -18 -15 -43 -30 -55 -34 -13
-4 -25 -10 -28 -14 -7 -12 -78 19 -84 37 -8 19 12 93 24 93 6 0 9 3 8 8 -4 12
23 53 31 48 5 -3 17 4 27 15 11 12 36 28 56 36 21 8 35 19 33 24 -7 10 79 38
115 37 15 0 5 -5 -25 -14z"/>
<path d="M2945 818 c-53 -41 -86 -82 -129 -161 -23 -42 -46 -74 -50 -70 -4 4
-4 -1 0 -11 5 -13 4 -17 -4 -12 -8 5 -10 2 -6 -8 4 -10 -8 -28 -33 -51 -44
-41 -49 -42 -49 -15 0 11 6 20 13 20 17 0 17 16 0 23 -9 3 -12 16 -9 35 3 22
-2 33 -17 44 -11 8 -18 17 -15 21 9 9 -59 -9 -84 -22 -12 -6 -22 -10 -22 -7 0
3 -19 -15 -42 -40 -44 -46 -93 -68 -81 -37 4 11 2 14 -5 9 -23 -14 -12 25 12
47 20 18 23 27 16 45 -5 12 -16 22 -24 22 -8 0 -21 3 -30 6 -10 4 -16 1 -16
-10 0 -14 -33 -40 -41 -31 -2 2 -4 -18 -4 -43 0 -41 -3 -47 -22 -50 -33 -5
-38 -45 -11 -92 25 -43 55 -52 78 -25 7 8 19 15 27 15 8 0 12 4 9 9 -3 5 3 11
14 14 13 3 24 -1 30 -14 17 -30 46 -42 63 -24 8 8 17 11 21 8 3 -4 6 1 6 10 0
10 5 16 12 15 7 -2 13 3 14 10 1 6 2 15 3 18 2 9 31 -23 31 -34 0 -12 80 -21
86 -10 11 17 53 8 59 -12 3 -11 11 -20 17 -20 18 0 47 41 54 76 3 19 10 37 15
40 5 3 6 -3 2 -13 -6 -16 -5 -16 10 -5 8 8 15 19 13 25 -1 7 -1 8 2 4 2 -4 11
-2 19 5 13 10 15 8 13 -12 -6 -71 16 -91 90 -83 26 3 41 -1 59 -18 21 -19 25
-20 35 -7 6 8 16 13 22 11 10 -3 52 35 47 43 -10 16 0 12 15 -5 9 -12 32 -26
50 -31 30 -8 37 -6 60 18 15 15 31 27 37 27 12 0 38 52 33 66 -2 6 -23 -5 -47
-25 -51 -43 -59 -45 -36 -10 14 21 14 28 3 41 -10 13 -10 17 0 20 6 3 12 11
12 18 0 18 -29 47 -41 39 -5 -3 -12 1 -15 9 -4 11 -14 13 -38 7 -38 -8 -46
-12 -103 -56 -23 -18 -40 -34 -37 -37 3 -2 -9 -17 -27 -31 -35 -30 -52 -27
-25 3 10 11 15 24 12 29 -3 6 1 13 10 16 14 5 12 10 -11 32 -15 14 -36 26 -46
27 -17 1 -16 4 6 27 14 14 25 31 25 38 0 6 11 19 24 27 34 23 52 70 35 89 -8
9 -20 22 -27 31 -17 21 -33 19 -67 -7z"/>
<path d="M963 600 c-3 -11 -11 -20 -19 -20 -7 0 -16 -5 -20 -12 -5 -7 -2 -9 7
-4 10 6 10 4 -1 -6 -8 -7 -16 -20 -18 -28 -2 -8 -12 -21 -22 -29 -20 -13 -30
-78 -11 -66 5 3 12 -4 16 -15 4 -11 11 -18 16 -15 5 4 9 1 9 -4 0 -22 25 -10
66 30 l41 41 27 -27 c22 -22 34 -26 65 -22 30 3 41 0 50 -15 11 -18 15 -16 56
29 24 26 44 55 45 62 0 23 22 -3 34 -41 10 -31 14 -33 62 -36 48 -3 54 -1 74
28 12 16 27 30 35 30 15 0 28 41 16 53 -4 4 -19 -3 -32 -15 -13 -13 -33 -30
-43 -38 -16 -12 -18 -12 -11 -1 6 11 4 13 -8 8 -24 -9 -21 7 9 42 23 27 24 32
11 46 -20 19 -60 19 -97 0 -28 -15 -29 -14 -32 13 -4 36 -43 44 -51 10 -4 -13
-13 -32 -22 -43 -9 -11 -13 -13 -9 -5 4 8 -6 2 -22 -15 -16 -16 -29 -33 -27
-36 1 -3 -9 -11 -22 -17 -29 -13 -31 -6 -10 25 13 18 13 26 3 43 -17 27 -44
25 -80 -5 -16 -14 -35 -22 -40 -19 -7 4 -8 2 -4 -4 11 -18 -13 -57 -27 -43 -7
7 -2 22 18 51 24 35 26 44 17 65 -14 30 -42 33 -49 5z"/>
</g>
</svg>
